<svg xmlns="http://www.w3.org/2000/svg" viewBox="0 0 1200 628" width="1200" height="628">
  <!-- Background -->
  <rect width="1200" height="628" fill="#1a1a1a"/>

  <!-- Yellow accent bar top -->
  <rect width="1200" height="8" fill="#F5C135"/>

  <!-- Yellow accent bar bottom -->
  <rect y="620" width="1200" height="8" fill="#F5C135"/>

  <!-- Large D lettermark -->
  <path
    fill="#F5C135"
    fill-rule="evenodd"
    d="M80,160 L200,160 C340,160 430,240 430,314 C430,388 340,468 200,468 L80,468 Z
       M160,240 L200,240 C300,240 350,274 350,314 C350,354 300,388 200,388 L160,388 Z"
  />

  <!-- Flame on D -->
  <path fill="#F5C135" d="M310,120 C318,148 346,162 334,198 C322,176 322,150 306,142 C306,166 290,188 290,212 C262,184 270,132 310,120 Z"/>

  <!-- Company name -->
  <text x="490" y="290" font-family="Arial Black, sans-serif" font-weight="900" font-size="88" fill="#FFFFFF" letter-spacing="-2">DYNOMO</text>

  <!-- Tagline -->
  <text x="492" y="370" font-family="Arial, sans-serif" font-weight="400" font-size="42" fill="#F5C135" letter-spacing="6">PLUMBING &amp; HEATING</text>

  <!-- Sub tagline -->
  <text x="492" y="430" font-family="Arial, sans-serif" font-weight="400" font-size="28" fill="#9ca3af" letter-spacing="4">24/7 EMERGENCY SERVICES · BOLTON</text>

  <!-- Gas Safe badge area -->
  <rect x="492" y="466" width="280" height="44" rx="6" fill="#F5C135" opacity="0.15"/>
  <text x="632" y="494" text-anchor="middle" font-family="Arial, sans-serif" font-weight="700" font-size="20" fill="#F5C135" letter-spacing="3">⚡ GAS SAFE REGISTERED</text>
</svg>
